<?xml version="1.0" encoding="iso-8859-1"?>
<!-- Generator: Adobe Illustrator 19.0.0, SVG Export Plug-In . SVG Version: 6.00 Build 0)  -->
<svg version="1.1" id="Layer_1" xmlns="http://www.w3.org/2000/svg" xmlns:xlink="http://www.w3.org/1999/xlink" x="0px" y="0px"
	 viewBox="0 0 508 508" style="enable-background:new 0 0 508 508;" xml:space="preserve">
<path style="fill:#7D8B95;" d="M64,57.8l17.2,38h3.2h20.8L84.8,50.6c-7.2-16-19.2-26.8-42.4-26.8H6v20h35.6C56.8,43.8,60,49,64,57.8
	z"/>
<path style="fill:#EFDC81;" d="M196.8,327.8h10.4h21.6h247.6c8.8,0,17.6-6.4,17.6-15.2V115.8H90l84.8,196.4
	C178,320.2,188,327.8,196.8,327.8z"/>
<g>
	<path style="fill:#F4EFEF;" d="M388,296.6c5.6,0,10-4.4,10-10V152.2c0-5.6-4.4-10-10-10s-10,4.4-10,10v134.4
		C378,292.2,382.4,296.6,388,296.6z"/>
	<path style="fill:#F4EFEF;" d="M444,296.6c5.6,0,10-4.4,10-10V152.2c0-5.6-4.4-10-10-10s-10,4.4-10,10v134.4
		C434,292.2,438.4,296.6,444,296.6z"/>
	<path style="fill:#F4EFEF;" d="M332,296.6c5.6,0,10-4.4,10-10V152.2c0-5.6-4.4-10-10-10s-10,4.4-10,10v134.4
		C322,292.2,326.4,296.6,332,296.6z"/>
	<path style="fill:#F4EFEF;" d="M276,296.6c5.6,0,10-4.4,10-10V152.2c0-5.6-4.4-10-10-10s-10,4.4-10,10v134.4
		C266,292.2,270.4,296.6,276,296.6z"/>
	<path style="fill:#F4EFEF;" d="M220,296.6c5.6,0,10-4.4,10-10V152.2c0-5.6-4.4-10-10-10s-10,4.4-10,10v134.4
		C210,292.2,214.4,296.6,220,296.6z"/>
	<path style="fill:#F4EFEF;" d="M178,152.6c0-5.6-2.4-10-8-10s-8,4.4-8,10v43.6c0,5.6,2.4,10,8,10s8-4.4,8-10V152.6z"/>
</g>
<g>
	<path style="fill:#7D8B95;" d="M172,395.8c-24,0-43.2,19.2-43.2,43.2s19.2,43.2,43.2,43.2s43.2-19.2,43.2-43.2S196,395.8,172,395.8
		z"/>
	<path style="fill:#7D8B95;" d="M460.8,482.2c24,0,43.2-19.2,43.2-43.2s-19.2-43.2-43.2-43.2S417.6,415,417.6,439
		C417.6,463,436.8,482.2,460.8,482.2z"/>
</g>
<path style="fill:#EF934A;" d="M81.2,99.8L81.2,99.8c-4.8,0-7.2,6.8-7.2,11.2v4c0,4.4,2.8,4.8,7.2,4.8H90h402.4c4.4,0,6-0.4,6-4.8
	v-4c0-4.4-1.6-11.2-6-11.2H105.6H84.8H81.2L81.2,99.8z"/>
<path d="M274,300.6c-7.6,0-14-6-14-14V152.2c0-7.6,6.4-14,14-14s14,6,14,14v134.4C288,294.6,281.6,300.6,274,300.6z M274,146.6
	c-3.2,0-6,2.8-6,6V287c0,3.2,2.8,6,6,6s6-2.8,6-6V152.6C280,149.4,277.2,146.6,274,146.6z"/>
<path d="M222,300.6c-7.6,0-14-6-14-14V152.2c0-7.6,6.4-14,14-14s14,6,14,14v134.4C236,294.6,229.6,300.6,222,300.6z M222,146.6
	c-3.2,0-6,2.8-6,6V287c0,3.2,2.8,6,6,6s6-2.8,6-6V152.6C228,149.4,225.2,146.6,222,146.6z"/>
<path d="M170,212.6c-7.6,0-14-6-14-14v-46.4c0-7.6,6.4-14,14-14s14,6,14,14v46.4C184,206.6,177.6,212.6,170,212.6z M170,146.6
	c-3.2,0-6,2.8-6,6V199c0,3.2,2.8,6,6,6s6-2.8,6-6v-46.4C176,149.4,173.2,146.6,170,146.6z"/>
<path d="M334,300.6c-7.6,0-14-6-14-14V152.2c0-7.6,6.4-14,14-14s14,6,14,14v134.4C348,294.6,341.6,300.6,334,300.6z M334,146.6
	c-3.2,0-6,2.8-6,6V287c0,3.2,2.8,6,6,6s6-2.8,6-6V152.6C340,149.4,337.2,146.6,334,146.6z"/>
<path d="M390,300.6c-7.6,0-14-6-14-14V152.2c0-7.6,6.4-14,14-14s14,6,14,14v134.4C404,294.6,397.6,300.6,390,300.6z M390,146.6
	c-3.2,0-6,2.8-6,6V287c0,3.2,2.8,6,6,6s6-2.8,6-6V152.6C396,149.4,393.2,146.6,390,146.6z"/>
<path d="M446,300.6c-7.6,0-14-6-14-14V152.2c0-7.6,6.4-14,14-14s14,6,14,14v134.4C460,294.6,453.6,300.6,446,300.6z M446,146.6
	c-3.2,0-6,2.8-6,6V287c0,3.2,2.8,6,6,6s6-2.8,6-6V152.6C452,149.4,449.2,146.6,446,146.6z"/>
<path d="M85.2,100.6c-1.6,0-2.8-0.8-3.6-2.4L64.4,59.8c-3.2-6.8-4.8-10-18.8-10H4c-2.4,0-4-1.6-4-4v-20c0-2.4,1.6-4,4-4h42.4
	c22.8,0,37.6,8.8,46,27.6l20.4,44c0.8,2,0,4.4-2,5.2c-2,0.8-4.4,0-5.2-2l-20.4-44C78,36.2,66.4,29.4,46.4,29.4H8v12h37.6
	c16,0,20.8,4.4,26,14.8l17.2,38.4c0.8,2,0,4.4-2,5.2C86.4,100.6,86,100.6,85.2,100.6z"/>
<path d="M480.4,333.8H200.8c-10.4,0-22.8-10.8-26.8-20l-82.4-190c-0.8-2,0-4.4,2-5.2c2-0.8,4.4,0,5.2,2l82.4,190
	c2.8,6.8,12.8,15.2,19.6,15.2h279.6c5.2,0,7.6-10,7.6-17.2V119.8c0-2.4,1.6-4,4-4s4,1.6,4,4v188.8C496,321,491.2,333.8,480.4,333.8z
	"/>
<path d="M172,486.2c-26,0-47.2-21.2-47.2-47.2s21.2-47.2,47.2-47.2s47.2,21.2,47.2,47.2C219.2,465,198,486.2,172,486.2z M172,399.8
	c-21.6,0-39.2,17.6-39.2,39.2s17.6,39.2,39.2,39.2s39.2-17.6,39.2-39.2S193.6,399.8,172,399.8z"/>
<path d="M172,466.6c-15.2,0-27.6-12.4-27.6-27.6s12.4-27.6,27.6-27.6c2.4,0,4,1.6,4,4s-1.6,4-4,4c-10.8,0-19.6,8.8-19.6,19.6
	c0,10.8,8.8,19.6,19.6,19.6s19.6-8.8,19.6-19.6c0-2.4,1.6-4,4-4s4,1.6,4,4C199.6,454.2,187.2,466.6,172,466.6z"/>
<path d="M460.8,486.2c-26,0-47.2-21.2-47.2-47.2s21.2-47.2,47.2-47.2S508,413,508,439C508,465,486.8,486.2,460.8,486.2z
	 M460.8,399.8c-21.6,0-39.2,17.6-39.2,39.2s17.6,39.2,39.2,39.2S500,460.6,500,439S482.4,399.8,460.8,399.8z"/>
<path d="M460.8,466.6c-15.2,0-27.6-12.4-27.6-27.6s12.4-27.6,27.6-27.6c2.4,0,4,1.6,4,4s-1.6,4-4,4c-10.8,0-19.6,8.8-19.6,19.6
	c0,10.8,8.8,19.6,19.6,19.6c10.8,0,19.6-8.8,19.6-19.6c0-2.4,1.6-4,4-4s4,1.6,4,4C488,454.2,476,466.6,460.8,466.6z"/>
<path d="M418,453.8H214c-2.4,0-4-1.6-4-4s1.6-4,4-4h204c2.4,0,4,1.6,4,4S420.4,453.8,418,453.8z"/>
<path d="M418,433.8H214c-2.4,0-4-1.6-4-4s1.6-4,4-4h204c2.4,0,4,1.6,4,4S420.4,433.8,418,433.8z"/>
<path d="M198.8,407.4c-0.4,0-1.2,0-1.6-0.4c-2-0.8-2.8-3.2-2-5.2l31.2-72c0.8-2,3.2-2.8,5.2-2s2.8,3.2,2,5.2l-31.2,72
	C201.6,406.2,200.4,407.4,198.8,407.4z"/>
<path d="M180.8,399c-0.4,0-1.2,0-1.6-0.4c-2-0.8-2.8-3.2-2-5.2l27.2-62.8c0.8-2,3.2-2.8,5.2-2s2.8,3.2,2,5.2l-27.2,62.8
	C183.6,398.2,182.4,399,180.8,399z"/>
<path d="M492,121.8H80c-6.4,0-12-5.2-12-12v-4c0-6.4,5.2-12,12-12h412c6.4,0,12,5.2,12,12v4C504,116.6,498.8,121.8,492,121.8z
	 M80,101.8c-2,0-4,1.6-4,4v4c0,2,1.6,4,4,4h412c2,0,4-1.6,4-4v-4c0-2-1.6-4-4-4H80z"/>
<g>
</g>
<g>
</g>
<g>
</g>
<g>
</g>
<g>
</g>
<g>
</g>
<g>
</g>
<g>
</g>
<g>
</g>
<g>
</g>
<g>
</g>
<g>
</g>
<g>
</g>
<g>
</g>
<g>
</g>
</svg>
